<svg width="246" height="59" viewBox="0 0 246 59" fill="none" xmlns="http://www.w3.org/2000/svg">
<path d="M11.8 18.5H0.2V13H29.9V18.5H18.3V48H11.8V18.5ZM33.5434 21.3H39.7934V48H33.5434V21.3ZM36.6934 16.9C35.56 16.9 34.61 16.55 33.8434 15.85C33.0767 15.1167 32.6934 14.2167 32.6934 13.15C32.6934 12.0833 33.0767 11.2 33.8434 10.5C34.61 9.76667 35.56 9.4 36.6934 9.4C37.8267 9.4 38.7767 9.75 39.5434 10.45C40.31 11.1167 40.6934 11.9667 40.6934 13C40.6934 14.1 40.31 15.0333 39.5434 15.8C38.81 16.5333 37.86 16.9 36.6934 16.9ZM81.6965 21C85.0632 21 87.7298 21.9833 89.6965 23.95C91.6632 25.8833 92.6465 28.8 92.6465 32.7V48H86.3965V33.5C86.3965 31.1667 85.8798 29.4167 84.8465 28.25C83.8132 27.05 82.3298 26.45 80.3965 26.45C78.2965 26.45 76.6132 27.15 75.3465 28.55C74.0798 29.9167 73.4465 31.8833 73.4465 34.45V48H67.1965V33.5C67.1965 31.1667 66.6798 29.4167 65.6465 28.25C64.6132 27.05 63.1298 26.45 61.1965 26.45C59.0632 26.45 57.3632 27.1333 56.0965 28.5C54.8632 29.8667 54.2465 31.85 54.2465 34.45V48H47.9965V21.3H53.9465V24.7C54.9465 23.5 56.1965 22.5833 57.6965 21.95C59.1965 21.3167 60.8632 21 62.6965 21C64.6965 21 66.4632 21.3833 67.9965 22.15C69.5632 22.8833 70.7965 23.9833 71.6965 25.45C72.7965 24.05 74.2132 22.9667 75.9465 22.2C77.6798 21.4 79.5965 21 81.6965 21ZM125.977 34.8C125.977 35.2333 125.944 35.85 125.877 36.65H104.927C105.294 38.6167 106.244 40.1833 107.777 41.35C109.344 42.4833 111.277 43.05 113.577 43.05C116.511 43.05 118.927 42.0833 120.827 40.15L124.177 44C122.977 45.4333 121.461 46.5167 119.627 47.25C117.794 47.9833 115.727 48.35 113.427 48.35C110.494 48.35 107.911 47.7667 105.677 46.6C103.444 45.4333 101.711 43.8167 100.477 41.75C99.2773 39.65 98.6773 37.2833 98.6773 34.65C98.6773 32.05 99.2607 29.7167 100.427 27.65C101.627 25.55 103.277 23.9167 105.377 22.75C107.477 21.5833 109.844 21 112.477 21C115.077 21 117.394 21.5833 119.427 22.75C121.494 23.8833 123.094 25.5 124.227 27.6C125.394 29.6667 125.977 32.0667 125.977 34.8ZM112.477 26C110.477 26 108.777 26.6 107.377 27.8C106.011 28.9667 105.177 30.5333 104.877 32.5H120.027C119.761 30.5667 118.944 29 117.577 27.8C116.211 26.6 114.511 26 112.477 26ZM163.681 13V48H158.331L139.031 24.3V48H132.581V13H137.931L157.231 36.7V13H163.681ZM241.746 21.3L231.896 48H225.896L218.996 29.6L211.996 48H205.996L196.196 21.3H202.096L209.146 41L216.496 21.3H221.746L228.946 41.1L236.196 21.3H241.746Z" fill="#F16B11"/>
<path d="M181 19.5C173.004 19.5 166.5 26.0044 166.5 34C166.5 41.9956 173.004 48.5 181 48.5C188.996 48.5 195.5 41.9956 195.5 34C195.5 26.0044 188.996 19.5 181 19.5ZM181 45.75C174.521 45.75 169.25 40.4786 169.25 34C169.25 27.5214 174.521 22.25 181 22.25C187.479 22.25 192.75 27.5214 192.75 34C192.75 40.4786 187.479 45.75 181 45.75Z" fill="#F16B11" stroke="#F16B11"/>
<path d="M182.375 25.25V24.75H181.875H180.125H179.625V25.25V34.3623V34.5694L179.771 34.7159L185.278 40.2222L185.631 40.5758L185.985 40.2222L187.222 38.9849L187.576 38.6313L187.222 38.2778L182.375 33.4306V25.25Z" fill="#F16B11" stroke="#F16B11"/>
</svg>
